<mxfile host="app.diagrams.net" modified="2020-10-21T18:48:24.946Z" agent="5.0 (Windows NT 6.3; Win64; x64) AppleWebKit/537.36 (KHTML, like Gecko) Chrome/86.0.4240.111 Safari/537.36" etag="CQzYEFU6AqZilAc8OpnX" version="13.8.1" type="github">
  <diagram id="8kxPiKutm3OwOxfhQyLP" name="Page-1">
    <mxGraphModel dx="1108" dy="1651" grid="1" gridSize="10" guides="1" tooltips="1" connect="1" arrows="1" fold="1" page="1" pageScale="1" pageWidth="827" pageHeight="1169" math="0" shadow="0">
      <root>
        <mxCell id="0" />
        <mxCell id="1" parent="0" />
        <mxCell id="EryE8J0RL86jhGh0CoP4-2" value="Login" style="ellipse;whiteSpace=wrap;html=1;aspect=fixed;" vertex="1" parent="1">
          <mxGeometry x="110" y="210" width="80" height="80" as="geometry" />
        </mxCell>
        <mxCell id="EryE8J0RL86jhGh0CoP4-3" value="" style="endArrow=classic;html=1;" edge="1" parent="1">
          <mxGeometry width="50" height="50" relative="1" as="geometry">
            <mxPoint x="149.5" y="360" as="sourcePoint" />
            <mxPoint x="149.5" y="290" as="targetPoint" />
          </mxGeometry>
        </mxCell>
        <mxCell id="EryE8J0RL86jhGh0CoP4-6" value="User&amp;nbsp;" style="ellipse;whiteSpace=wrap;html=1;aspect=fixed;" vertex="1" parent="1">
          <mxGeometry x="110" y="360" width="80" height="80" as="geometry" />
        </mxCell>
        <mxCell id="EryE8J0RL86jhGh0CoP4-8" value="User details" style="rounded=0;whiteSpace=wrap;html=1;" vertex="1" parent="1">
          <mxGeometry x="20" y="305" width="120" height="30" as="geometry" />
        </mxCell>
        <mxCell id="EryE8J0RL86jhGh0CoP4-9" value="Hospital" style="ellipse;whiteSpace=wrap;html=1;aspect=fixed;" vertex="1" parent="1">
          <mxGeometry x="370" y="275" width="90" height="90" as="geometry" />
        </mxCell>
        <mxCell id="EryE8J0RL86jhGh0CoP4-11" value="" style="endArrow=classic;html=1;entryX=1;entryY=0.75;entryDx=0;entryDy=0;entryPerimeter=0;" edge="1" parent="1" target="EryE8J0RL86jhGh0CoP4-2">
          <mxGeometry width="50" height="50" relative="1" as="geometry">
            <mxPoint x="370" y="320" as="sourcePoint" />
            <mxPoint x="360" y="250" as="targetPoint" />
          </mxGeometry>
        </mxCell>
        <mxCell id="EryE8J0RL86jhGh0CoP4-12" value="" style="endArrow=classic;html=1;" edge="1" parent="1">
          <mxGeometry width="50" height="50" relative="1" as="geometry">
            <mxPoint x="414" y="430" as="sourcePoint" />
            <mxPoint x="414" y="360" as="targetPoint" />
          </mxGeometry>
        </mxCell>
        <mxCell id="EryE8J0RL86jhGh0CoP4-13" value="&lt;font style=&quot;font-size: 14px&quot;&gt;Appointement Details&amp;nbsp;&lt;/font&gt;" style="text;html=1;resizable=0;autosize=1;align=center;verticalAlign=middle;points=[];fillColor=none;strokeColor=none;rounded=0;" vertex="1" parent="1">
          <mxGeometry x="339" y="430" width="150" height="20" as="geometry" />
        </mxCell>
        <mxCell id="EryE8J0RL86jhGh0CoP4-14" value="Dashboard&amp;nbsp;" style="ellipse;whiteSpace=wrap;html=1;aspect=fixed;" vertex="1" parent="1">
          <mxGeometry x="110" y="30" width="80" height="80" as="geometry" />
        </mxCell>
        <mxCell id="EryE8J0RL86jhGh0CoP4-15" value="" style="endArrow=classic;html=1;" edge="1" parent="1">
          <mxGeometry width="50" height="50" relative="1" as="geometry">
            <mxPoint x="149.5" y="210" as="sourcePoint" />
            <mxPoint x="149.5" y="110" as="targetPoint" />
          </mxGeometry>
        </mxCell>
        <mxCell id="EryE8J0RL86jhGh0CoP4-18" value="Medical history details&amp;nbsp;" style="rounded=0;whiteSpace=wrap;html=1;" vertex="1" parent="1">
          <mxGeometry x="20" y="150" width="120" height="30" as="geometry" />
        </mxCell>
        <mxCell id="EryE8J0RL86jhGh0CoP4-19" value="" style="endArrow=classic;html=1;" edge="1" parent="1">
          <mxGeometry width="50" height="50" relative="1" as="geometry">
            <mxPoint x="20" y="69.5" as="sourcePoint" />
            <mxPoint x="110" y="69.5" as="targetPoint" />
          </mxGeometry>
        </mxCell>
        <mxCell id="EryE8J0RL86jhGh0CoP4-20" value="Appointment &lt;br&gt;details&amp;nbsp;" style="text;html=1;resizable=0;autosize=1;align=center;verticalAlign=middle;points=[];fillColor=none;strokeColor=none;rounded=0;" vertex="1" parent="1">
          <mxGeometry x="20" y="80" width="80" height="30" as="geometry" />
        </mxCell>
        <mxCell id="EryE8J0RL86jhGh0CoP4-21" value="Donor&amp;nbsp;" style="ellipse;whiteSpace=wrap;html=1;aspect=fixed;" vertex="1" parent="1">
          <mxGeometry x="670" y="215" width="90" height="90" as="geometry" />
        </mxCell>
        <mxCell id="EryE8J0RL86jhGh0CoP4-26" value="" style="endArrow=classic;html=1;entryX=0;entryY=0.5;entryDx=0;entryDy=0;" edge="1" parent="1" target="EryE8J0RL86jhGh0CoP4-21">
          <mxGeometry width="50" height="50" relative="1" as="geometry">
            <mxPoint x="460" y="300" as="sourcePoint" />
            <mxPoint x="580" y="160" as="targetPoint" />
            <Array as="points" />
          </mxGeometry>
        </mxCell>
        <mxCell id="EryE8J0RL86jhGh0CoP4-27" value="Donation requirement&amp;nbsp;" style="text;html=1;resizable=0;autosize=1;align=center;verticalAlign=middle;points=[];fillColor=none;strokeColor=none;rounded=0;rotation=-10;" vertex="1" parent="1">
          <mxGeometry x="489" y="255" width="130" height="20" as="geometry" />
        </mxCell>
        <mxCell id="EryE8J0RL86jhGh0CoP4-29" value="Donator status&amp;nbsp;" style="text;html=1;resizable=0;autosize=1;align=center;verticalAlign=middle;points=[];fillColor=none;strokeColor=none;rounded=0;rotation=-10;" vertex="1" parent="1">
          <mxGeometry x="519" y="315" width="100" height="20" as="geometry" />
        </mxCell>
        <mxCell id="EryE8J0RL86jhGh0CoP4-31" value="Receiver&amp;nbsp;" style="ellipse;whiteSpace=wrap;html=1;aspect=fixed;" vertex="1" parent="1">
          <mxGeometry x="370" y="-70" width="80" height="80" as="geometry" />
        </mxCell>
        <mxCell id="EryE8J0RL86jhGh0CoP4-32" value="" style="endArrow=classic;html=1;entryX=0.025;entryY=0.388;entryDx=0;entryDy=0;entryPerimeter=0;" edge="1" parent="1" target="EryE8J0RL86jhGh0CoP4-31">
          <mxGeometry width="50" height="50" relative="1" as="geometry">
            <mxPoint x="190" y="50" as="sourcePoint" />
            <mxPoint x="270" y="-20" as="targetPoint" />
          </mxGeometry>
        </mxCell>
        <mxCell id="EryE8J0RL86jhGh0CoP4-33" value="" style="endArrow=classic;html=1;exitX=0.5;exitY=1;exitDx=0;exitDy=0;" edge="1" parent="1" source="EryE8J0RL86jhGh0CoP4-31">
          <mxGeometry width="50" height="50" relative="1" as="geometry">
            <mxPoint x="409.5" y="30" as="sourcePoint" />
            <mxPoint x="409.5" y="280" as="targetPoint" />
          </mxGeometry>
        </mxCell>
        <mxCell id="EryE8J0RL86jhGh0CoP4-34" value="&lt;font style=&quot;font-size: 14px&quot;&gt;Display&amp;nbsp;&lt;/font&gt;" style="text;html=1;resizable=0;autosize=1;align=center;verticalAlign=middle;points=[];fillColor=none;strokeColor=none;rounded=0;rotation=-30;" vertex="1" parent="1">
          <mxGeometry x="220" y="-20" width="70" height="20" as="geometry" />
        </mxCell>
        <mxCell id="EryE8J0RL86jhGh0CoP4-35" value="" style="endArrow=classic;html=1;" edge="1" parent="1">
          <mxGeometry width="50" height="50" relative="1" as="geometry">
            <mxPoint x="590" y="-30" as="sourcePoint" />
            <mxPoint x="454" y="-30" as="targetPoint" />
          </mxGeometry>
        </mxCell>
        <mxCell id="EryE8J0RL86jhGh0CoP4-36" value="Post requirement&amp;nbsp;" style="text;html=1;resizable=0;autosize=1;align=center;verticalAlign=middle;points=[];fillColor=none;strokeColor=none;rounded=0;" vertex="1" parent="1">
          <mxGeometry x="474" y="-50" width="110" height="20" as="geometry" />
        </mxCell>
        <mxCell id="EryE8J0RL86jhGh0CoP4-39" value="" style="endArrow=classic;html=1;exitX=0.022;exitY=0.789;exitDx=0;exitDy=0;exitPerimeter=0;" edge="1" parent="1" source="EryE8J0RL86jhGh0CoP4-21">
          <mxGeometry width="50" height="50" relative="1" as="geometry">
            <mxPoint x="700" y="275" as="sourcePoint" />
            <mxPoint x="460" y="327.04" as="targetPoint" />
          </mxGeometry>
        </mxCell>
        <mxCell id="EryE8J0RL86jhGh0CoP4-41" value="Post requirements&amp;nbsp;" style="rounded=0;whiteSpace=wrap;html=1;" vertex="1" parent="1">
          <mxGeometry x="414" y="130" width="120" height="30" as="geometry" />
        </mxCell>
      </root>
    </mxGraphModel>
  </diagram>
</mxfile>
